<svg width="366" height="187" viewBox="0 0 366 187" fill="none" xmlns="http://www.w3.org/2000/svg">
<path d="M81.7393 -1.32322e-05C92.5726 -1.32322e-05 102.239 1.58332 110.739 4.74999C119.406 7.74999 126.073 12.0833 130.739 17.75C135.573 23.25 137.989 29.5833 137.989 36.75C137.989 45.25 135.406 52.25 130.239 57.75C125.239 63.25 118.906 66 111.239 66C107.739 66 105.989 65 105.989 63C105.989 62.5 106.656 61.0833 107.989 58.75C109.489 56.4167 110.739 53.8333 111.739 51C112.906 48 113.489 44.4167 113.489 40.25C113.489 32.4167 110.573 26.0833 104.739 21.25C98.9059 16.4167 91.2393 14 81.7393 14C69.4059 14 59.3226 17.8333 51.4893 25.5C43.6559 33.1667 37.9893 43 34.4893 55C30.9893 67 29.2393 79.8333 29.2393 93.5C29.2393 107.5 31.4059 120.25 35.7393 131.75C40.2393 143.25 46.5726 152.417 54.7393 159.25C62.9059 165.917 72.4059 169.25 83.2393 169.25C93.9059 169.25 103.156 167.333 110.989 163.5C118.823 159.5 125.239 153.917 130.239 146.75C130.739 146.083 131.323 145.75 131.989 145.75C133.489 145.75 135.156 146.583 136.989 148.25C138.989 149.75 139.989 151.25 139.989 152.75C139.989 153.25 139.739 153.917 139.239 154.75C124.906 175.917 105.489 186.5 80.9893 186.5C63.6559 186.5 48.9893 182.417 36.9893 174.25C24.9893 166.083 15.9893 155 9.98926 141C3.98926 126.833 0.989258 111 0.989258 93.5C0.989258 75.8333 3.98926 60 9.98926 46C15.9893 31.8333 24.9893 20.6667 36.9893 12.5C49.1559 4.16665 64.0726 -1.32322e-05 81.7393 -1.32322e-05ZM348.286 134.5C349.119 144.833 350.786 153.5 353.286 160.5C355.953 167.333 360.036 173.5 365.536 179L362.286 183H307.536L304.536 174.5L310.286 173C315.619 171.333 319.286 169.25 321.286 166.75C323.453 164.083 324.536 160.167 324.536 155L324.036 145.75L316.786 41.5L264.536 165H251.036L198.786 41.5L193.286 118.5C192.286 130.167 191.786 138.333 191.786 143C191.786 149.833 192.453 155.667 193.786 160.5C195.286 165.167 197.619 169.833 200.786 174.5L203.786 179L200.036 183H153.036L150.286 174.5L156.036 173C162.536 171 166.953 168.5 169.286 165.5C171.786 162.5 173.286 157.25 173.786 149.75L180.536 50.75C180.703 48.5833 180.953 45.5833 181.286 41.75C181.619 37.9167 181.786 34.5 181.786 31.5C181.786 25.8333 180.703 21.75 178.536 19.25C176.536 16.75 172.786 14.8333 167.286 13.5L161.536 12L164.286 3.49999H209.786L261.286 129.25L314.286 3.49999H350.286L354.036 7.49999L351.036 12C347.869 16.6667 345.536 21.4167 344.036 26.25C342.703 30.9167 342.036 36.6667 342.036 43.5C342.036 46 342.453 53.5 343.286 66L348.286 134.5Z" fill="#CDA45E"/>
</svg>
